<mxfile host="app.diagrams.net" agent="Mozilla/5.0 (Windows NT 10.0; Win64; x64) AppleWebKit/537.36 (KHTML, like Gecko) Chrome/129.0.0.0 Safari/537.36" version="24.7.17">
  <diagram name="Page-1" id="rGWU1b1ZWOntEGMi2oHV">
    <mxGraphModel dx="1221" dy="608" grid="1" gridSize="10" guides="1" tooltips="1" connect="1" arrows="1" fold="1" page="1" pageScale="1" pageWidth="850" pageHeight="1100" math="0" shadow="0">
      <root>
        <mxCell id="0" />
        <mxCell id="1" parent="0" />
        <mxCell id="CZ_hw_1A7exH73h-SnTu-3" value="&lt;span style=&quot;font-weight: 700;&quot;&gt;&lt;font color=&quot;#001dbc&quot; style=&quot;font-size: 19px;&quot;&gt;AWS Lambda async API Analytics with&amp;nbsp;&lt;/font&gt;&lt;/span&gt;&lt;div&gt;&lt;span style=&quot;font-weight: 700;&quot;&gt;&lt;font color=&quot;#001dbc&quot; style=&quot;font-size: 19px;&quot;&gt;serverless (Timestream, SQS, S3)&lt;/font&gt;&lt;/span&gt;&lt;/div&gt;" style="rounded=0;whiteSpace=wrap;html=1;align=left;fillColor=#f8cecc;strokeColor=#b85450;" vertex="1" parent="1">
          <mxGeometry x="100" y="300" width="520" height="80" as="geometry" />
        </mxCell>
        <mxCell id="CZ_hw_1A7exH73h-SnTu-4" value="" style="shape=image;verticalLabelPosition=bottom;labelBackgroundColor=default;verticalAlign=top;aspect=fixed;imageAspect=0;image=data:image/jpeg,/9j/4AAQSkZJRgABAQAAAQABAAD/2wCEAAkGBw0PDQ0NDg4QDhANEBUQDw4OEBgQFg4RFhcWFxcRFhcYHSggGBolHBUWITEhJysrLi4wGCAzODMtNygtLi4BCgoKDg0OGhAQGzciHSAtKzExLjItLS0tLS0rNystNy0tLSstLS0tLS03KzI3NS0tKy0tLS0tLy8tLS0tLS0tLf/AABEIAN8A4gMBEQACEQEDEQH/xAAbAAEAAgMBAQAAAAAAAAAAAAAAAQYCBQcEA//EAEcQAAEDAgMCBwwIBAUFAAAAAAEAAgMEEQUGIRIxExRBUVNxgQcWIjI1YZGSsrPR0hUjNEJSgpOhJDNUchclQ3ODNkR0wcL/xAAaAQEAAwEBAQAAAAAAAAAAAAAAAQQFBgMC/8QANREBAAECAgYIBgIDAQEBAAAAAAECAwQFETE0UbHREhMVQXGBkaEhUmHB4fAkMhQzQqJDI//aAAwDAQACEQMRAD8A7igICAgICAgICAgICAgICAgICAgICAgICAgICAgICAgICAgICAgICAgICAgICAgICAgICAgICAgICAgICAgICAgICAgICAgICAgICAgICAgICAgICAgICAgICAgICDQ4nmump53wPjmc6O1yxrSDdodpdwO4rPv5las3JoqidMeHNfs5dcu0RXTMaJ8eTy9/FJ0VR6rPnXj2xY3T7c3r2Te3x78k9+9J0VR6rPnTtixun25nZN7fHvyT370nRVHqs+dO2bG6fSOZ2Te3x78jv2pOin9VnzqO2rG6fSOZ2Te3x78k9+tJ0U/qs+dO2rG6fSOZ2Te3x78jv0pejn9VnzqO2rG6fSOZ2Te3x78k9+dL0c/qs+dO27G6fSOZ2Te3x78jvzpejn9Vnzp23h90+kczsm9vj35J78qXo5/VZ86jtvD7p9I5o7Kvb49+Se/Gl6Of1WfOnbmH3T6RzT2Te3x78jvwpejn9VnzqO3MPun0jmdk3t8e/JPfhS9HN6rPmTt3D7qvSOZ2Te3x78jvvpujm9VvzJ27h91XpHNHZN7fHvyT33U3Rzeq35lHb2H3Vekc09k3t8e/I77abo5vVb8ydvYfdV6RzOyb2+Pfknvspujm9VvzJ29hvlq9I5o7Kvb49+T04fmCGeVsTGSBzr2Lg0DQX5HFe+FzaziLkW6InTO/RzeV/L7lmia6pjRHjybZaiiICAgICAgICAgIOX5x8o1P5PdsXK5ltNflwh0+X7NT58ZacFUFxkCgyC+RKgSCvkZBBIUDIFQJCgSCoGS+RIUCQVAyCgSoGQKgbfK32yPqd7JWrku10+E8FHMdnq8uK9rtHNCAgICAgICAgICDl+cvKNT/AMfu2Llsx2mvy4Q6fL9mp8+MtMqC4kFQMgUGQXyJUCQV8jIIJCgZAqBIUCQVAyXyJCgSCoGQUCVA3GVftkXU72StTJtrp8J4KOY7PV5cV8XaOaEBAQEBAQEBAQEHLs5eUqn/AI/dsXLZjtNflwh0+X7NT58ZaYKiuJUCQVAyJ0USLxX0GEUrYRPC8mRtwQ55va1ybO03roL2HwNiKesp1/WebDtXsZemroVavDk8nD4D0Mnpk+ZV+llnyz/65vboZh80e3JPD4F0Mnpk+ZR0sr+Wf/XM6GYfNHtySJ8C6KQdsnzJ0sr+Wf8A1zOjmHzR7cnizRhTKaVjohaKVt2al1iN4uew9qq5lhKbFcTR/WpYwOJm9RMV/wBoaYFZi8kKBIKgZL5EhQJBUDIKBuMqfbYup3slamTbXT4TwUcx2ery4r6uzc0ICAgICAgICAgIOWZz8pVPXH7pi5fMNpr8uEOny/ZqfPjLThUlxIXyJUCSdColK35+/wCy/sf/APC2c4/+fhP2Y+Vf/Txj7qoFiNdKgSCvkXDDv47DX051mpbbHOQL7PpF2resfzMHNuf7UavtyY97+Liouf8ANWv781SWA2GQKgSFAkFQMl8iQoEgqBucqfbYup/slamTbXT4TwUcx2ery4r8uyc0ICAgICAgICAgIOV508pVP/H7pi5jMNpq8uEOny/ZqfPjLTAqkuMgoEhQB3FfMpheM7Uc0vE+Cikk2WP2thhda+xa9upbmaWrlzodCmZ+E6o8GJlt2ijp9KYj4xr81Z+iKz+ln/Sd8Fk/4l/5J9Jaf+TZ+ePWHwqKaWIhssb4yRcB7S0kc+q8a7ddE6K40eL0ouU1xppnS+a8322uW8R4vVMeTZj/AAJP7Ty9hsfSreAxHUXomdU/Cf36KuMsddamI1x8YenNuH8BVFzR9XP9Y3zO+8PTr2r0zTD9Vf0xqq+PP9+rzy+/1lrROun4cmlCzV5kCoEhQJBUDJfIkKBucp/bYup/slaeTbVT4TwUcx2ery4r+uyc0ICAgICAgICAgIOVZ08pVXXH7pi5nMNoq8uEOny/ZqfPjLTKkuJBUDIKBK+Rvo8217WhvCNOyLXMYvpzq/GZ4iI0aY9FGcusTOnR7s+/Cv8Axs/TCntXEb49Edm4fd7triR+kMMbUgAzU1+EAG+3j+kWd2K1f/mYSLsf2p1/fmq2f4uKm3/zVq+3JTgVgtlkomBcIv4/Cy3fPSbud2yNPS3TrC3af5mC0f8AdH25x7sar+Li9P8AzX++0+ypArn2ykIMgVAkKBIKgZL5G5yl9ti6n+yVp5PtVPhPBRzHZ6vLi6Auxc0ICAgICAgICAgIOU518p1XXH7pi5nMNoq8uEOny/ZqfPjLSgqmuMlAkFQMgoEhQJuvmRYslYkIqngXn6upGwQdwf8AdPbcjtC0csv9Xd6E6quLPzGx07XTjXTweHHsPNNUyRfdvtRnnYd3o1HYq2Mw/UXZp7u7wWMLf661FXf3+LwBVFhucqYlxeqZc2ZL9W/zX8V3Yf2JV7LsR1N6NOqr4Sp4+x1tqdGuPjBmjD+L1TwBZkv1kfmB3t7DfssvnMcP1N+dGqfjBgb/AFtqNOuPhLVBUFxIUDIFQJCgSCoG6yl9ui6n+yVpZRtUeEqOY7PV5cXQV2DmhAQEBAQEBAQEBByjOvlOq64/dMXNY/aKvLhDp8v2anz4y0qpriQVAyUCQVAyuokdBy1g8LaIMnDduuB0d42zsktaPOANpb+CwtFNjRc11/v5YGMxNdV7TRqo/fwpFZTPgmfE7R8TrXGm7c4dYsVg3bdVquaJ1x+6W3brpu0RVGqVqxoCuw2KtaLy0+koHNuf+9ndRWtio/ysLTej+1Ov782Xhv42JmzOqrV9uSoArEbCV8zAuNR/H4W2TfPSeNzuAGvpbY9YW5c/mYPpf9UfbnHx8WPR/FxfR/5r/faVRBWA2GQQSFAyBUCQoG6yj9ui6n+yVpZRtVPhKjmOz1eXF0Jde5oQEBAQEBAQEBAQcnzt5TquuP3TFzeP2iry4Q6fL9mp8+MtICqa4yUCQVAyUDa5aw3jVVHERdg8OX+wcnabDtVjCWOuuxT3a58FbF3+ptTV36o8WzzVjbjXsMJ0onWZbcXg+H2abPYrGOxUziImj/jj38lbBYWIsT0/++HdzerONO2eGnxKIeDI0Nk81/FJ84N2nsXpmNuLlFOIo1Tr/fZ55fXNuurD192r993nyPiAZO6mk1jqRax3bYG7tFx6F5ZXe6NybVWqrj+XpmVmaqIuU66eH4anGaA01TLCdzTdh/Ew6tPo06wVRxNibN2aPTwXMPei9biv90vGCvB7N/k7EeBqgxx+rqPAdfcHfdPp07VoZZf6q90Z1VfDz7lDMLHWWulGun483lzDh/FqqSMCzHeHH/YeTsNx2KvjsP1F6aY1T8Y8Htg7/XWoq79U+LXAqmssgVAkKBkCoG6yh9ui6n+yVo5RtVPhKjmOz1eXF0Nde5oQEBAQEBAQEBAQcmzv5TquuP3Ua5zHbRV5cIdPl+zU+fGWkBVNcSCoGSgSCoF2wj/L8LkqzpNVWEV+QG+x/wC3rXsfxcLN2f7VavtzY9/+TiotR/WnX9+SmX7etYzYW/JdSyaKfDZvFkaXR+a/jAecaOHatbLq4uUVYevVOr992TmNE26qcRRrjX++ytVEUkEzoz4MkL7XH4mnRw/YrKroqtVzTOuJadFVN2iJjVMLVmRorKGDEGDw4xszAcgvYjsd+xutXGxGIw9OIp1xr/fpPsy8HM4e/VYq1Tq/frCoArEa7IFBcsU/jsMjqhrLTXEluYW2/wBrOW3iP5eEi7H9qdf35sax/GxU25/rVq+3JUFgtlIKgZAqBIUDd5P+3RdT/ZK0cp2qPCVHMdnq8uLoi65zQgICAgICAgICAg5LnfypVdcfuo1zmO2iry4Q6fL9mp8+MtGqi4yBUCQVA2WX8NNVVRQ/dJ2pCOSMeN6d3avbDWeuuxR3d/g8MTe6m1Nff3eLb56xIS1Ip2fy6UbNhu2z43osB2FWMyvdO50I1U8VXLbPQt9OddXBW1nNF7MIklbUwOh1kEjdgc5JtY+Yi9/MvSxNUXaZo16XlfimbdUV6tDf90FkQqoy3+Y6P60DzGzT12v6Ar2bRT1sTGvR8fso5VNU2pidWn4JyPXN25aKXWOpabA7tq1iO1vspll2OlNmrVV++6MytToi9Trp/fZosUonU88sDv8ATdYH8Td7XdoIWdfszauTRPcv2LsXbcVx3vMCvB6rJkrERHUGB/8ALqRs2O7b5PTqO0LTyu/0LnV1aquP5Z2ZWenb6ca6eDW43QGmqZIfug7TDzsO74dip4vD9Rdmju7vBZw17rrUV+vi8SqrCQVAyBUDd5P+3RdT/ZK0cp2qPCVHMdnq8uLoq61zQgICAgICAgICAg5JnjypVdcfuo1zuO/31eXCHT5fs1HnxlowVUXEqBkCoF3y60UGGz4g8DhJxswg825npN3HzALVw0f4+HqvTrnV9mPip/yMRTZjVGv7qYXEkkkkk3JO8k7ysifj8ZbERo1AKgW3ItE0Gavl0jpmkNJ/Fa7ndjdPzLTy21ETVeq1UsvMrszFNmnXUr2I1rqieWd2+R17fhG4N7BYLOvXJu1zXPe0LNuLVEUR3PnBM5j2SMNnMcHNPMQbhedNU01RVGuH3VTFUTTOqVuzZE2qpKfEoh90MlA5ATbX+11x2rWzCmL1mnEU+f79JZOBqmzdqw9Xl+/WFQWK12THEEEGxBuCOQjcVETMTpgmIn4Su9RLh9fFTy1FQIJWNs8BzWm/KDtDdcXHWt+urC4uimq5V0ao+sRxYlFOIwtdVNunpUz4/Z55st0Rp55qeqfKYWOdo5jhcAmxsOWy8bmX4ebVVduvT0Yme6dT1px1+LlNFyjRpn6qoFhtZIKgbzJ32+Lqf7JWhlO1R4So5js9XlxdGXWuaEBAQEBAQEBAQEHI88+VKvrj91Guexv++ry4Q6fL9mp8+MtGqi4kFQPfguHuqqmKAffd4RH3WDVx9H72XpZtTduRRv4PHEXotW5rnu4t9n3EWumjo49I6VoBA3bZG7sbYdpVvMbumuLdOqnj+FPLbMxRN2rXVw/KrArNaT6RMc9zWNF3PIa0DlJNgEimZnRGtEzERpnUuWapG0dDT4bGfCeA6YjlANyfzP8A2bZauNmLFimxTrnX+/WWTgom/eqv1ao1fv0hTljtdIKgW3JFY14nw+XVk7SWA89rOaOzX8pWrltyKulYr1VavuysytzT0b9OulXK+ldBNJC/xo3Ft+cch7RY9qy7tqbdc0T3NG1ci5RFcd74ryeiQVAtuVvJ+J/7bvduWxgdkveE8GTjtoteMcVVCxWsyUDd5N+3w9T/AGStDKtqjwlRzHZ6vLi6Qusc0ICAgICAgICAgIOQ558qVfXH7qNc/jf99Xlwh0+X7NT58ZaMFVFxkoF2ymxtFQVOJygbTxsQg6XANgPzP/Zq08HEWbNV+e/V+/VkYyZv36bFPdr/AH6Qpkk+25z3ODnPJc5xO9xNyVlTOmdMteKdEaIj4QgSDnHpXynRK2ZBoGvmkrJLcFStJDju2yN/Y257QtHLrUTXNyrVTx/DMzK7NNEWqddXD8tLjOIOqamWc7nu8AH7rBo0ej97qliLs3bk17+C5h7MWrcUR3cXjBXi9mSgfakqXRSMlYbOjcHN6xyL6ormiqKqdcPmuiK6ZpnVK1ZygZPDT4lF4sjQ2TzX8Unzg3aexaWY0RdopxFHfr/fZl5fXNuurD1a41fvuqIeOcelY7X0Sy2xzj0qDRK25UIOHYn/ALbvduWvgdkveE8GTjtpteMcVWBWM1WQUDd5N+3w9T/ZK0Mq2mPCVHMdnq8uLpK6tzQgICAgICAgICAg5BnryrV9cfuo1gY3/fV5cIdPl+zUefGWjCqLiQoFwoM9yRQxQ8VjcImNYCHltw0WvaxstCjMaqKYp6Or6/hl3MrprrmrpT8fo9H+IUn9JH+oflX12pPye/4fHZNPz+35T/iDJ/SR/qH5U7Un5Pf8HZNPz+35eLGM5y1MD4BC2ESaOc15cS3lbuG9eN/MKrlE0RGjT9XtYy6m1XFc1adCtArOaLJQJBUDJQN/gOaJaSJ0PBtlYXbTQ5xbs33jcdOX0q9hsfVYp6OjTCjicDTfq6WnRLZ9/j/6Vn6h+VWO15+T3/Ct2THz+35T39v/AKVn6h+VR2vPye/4Oyafn9vy+NbnOSWGWIU7GcKxzC7bJsHCxNrDkK872a1V26qOho0xo17/ACfdvLKaK4q6WnROnUrAKyGoyCDeZM+3w9T/AGCr+V7THhKjmOz1eXF0pdU5oQEBAQEBAQEBAQcfz35Vq+uP3UawMZ/vq8uEOny/ZqPPjLRAqquMgoEgqBkoEgqBKgZAqBIKgZKBIKgZKBIKgZBQJC+RKgSCoG9yX5Qh6n+wVoZXtMeEqOY7PV5cXS11LmhAQEBAQEBAQEBBx7Pjh9K1evLH7qNYGMn/APery4Q6fL9mo8+MtDtDnCq6YXdCQ4c6jTAyDhzqNMGhIcOdRpg0Mtoc6jTAkOHOo0wMtoc6jTBoSHDnUaYGQcOdRpg0J2hzqNMI0Mg4c6jTAnaCjTAkOCaYGQcF8/A0JDgo0ibhQN9ko/5hD1P9gq/le0x4So5js9XlxdMXUuaEBAQEBAQEBAQEHxkpIXEudFG4neXMBJ7SFE0xPc+orqj4RLHiEHQxfpt+CjoU7k9ZXvn1OIQdDF+m34J0Kdx1le+fU4jB0MX6bfgnQp3HWV759TiMHQx/pt+CdCncdZXvn1OIwdDH6jfgnQp3HWV759TiMHQx+o34J0Kdx1le+fU4jB0MfqN+CdCncdZXvn1OIwdDH6jfgnQp3HWV759TiUHQx+o34J0Kdx1le+fU4lB0MfqD4J0Kdx1le+fU4lB0MfqD4J0Kdx1le+fVPEoOij9QfBOhTuOsr3z6nEoOij9QfBR0Kdx1le+fU4lD0UfqD4J1dO46yvfPqcSh6KP1B8E6uncdZXvn1OJw9FH6g+CdXTuOsr3z6smU0TTdsbGkcoaAVMUUx8YhE11T8Jl9V9PkQEBAQEBAQEAoOe5Q7p8eIYpJh/FuBjdwxo6kyFwrBE6x2Rsi12gu0JtYoNxnDNzsNqsKhNNwsOI1HF3z8Js8XcXMDTs28Lxid48UoNhnLMDMMw6pr3s4TgGjZjvs8I9zg1rb2NtXDWyDxdz3NwxeidUmHi8kUz4JYC4u2HNAO8gcjhyc45EGOF5tdUY1X4WyACLD4mvkquE3yODSI9jZ03u1v90oK63ui4nXSTfQeDuraeB5jNXNO2Bsrhv2A6wI3HffUXAQbTKWfXVVa/C8Qon4dXtZttie7hGTMGpLHWF9LnlGh10QXdBU8Mzg6fH6/BeLhraKBs3GOEuZC4QnZ2NnT+adb/d86C2ICAgICAgrGQM1nFqapnMAp+L1clLsiThNrYax23ewtfb3eZBZ0BBWMoZrOIVGLQGAQjDKt1KHCTb4bZc9u2RsjZ8TdrvQWdAQEBAQEBAQEFO7rOYPo/BaqRhtNOOLQch25LgkecM23flQc+zRhkWF4NgVZSTwvq8EkY+ZrJmkyCZwdM3Q3cOEIb/aSgtndbjbX5c49TEuMHA18Dm7w3S7uxj3HsQeLPmIDFG5ZoI9W4tNFWTN3fw8bA94PY5x62IPRlVww/M+OULvAhrYmYjDyAdKRzXc5/qIJ7jVLximxTFZWkOxislcL7+AaXBrfNZzpB2INRhEGZMuNkpIMPbi+Hte6SGSF2zK0OOrS0XdflI2TqdDzBuss5uwfFMUhNRRSUeLUzC2FtW0tds2cXNYb6mznGzgDYm3Kg6Og5Zlr/rrHf8Awo/ZpEHU0HNscwvEqqvq3Yjir8Hw6IhtGykqmQOqBreR773G69j+Ic2oeHudY1LHjtVhLMVdi9HxXjENRJIJnRvDmAs4QX2vGPLbQbtUHjwCmxbFsTx2lfi1XS0dHXSAcXfsyuJe8MiY86sjaGbhodr0B8stUmOVVdiOAyYxUNpcNk2n1bD/ABUrX/y4hKTdotdxOp0tuOgb/udVVbTYxi+B1NZLXR0jI5qeaoO1I1rw0lpcdTo9o/Lpa6Cpdy/LFbiEOIf5nVUFHHXy7EdC/gny1BDNp7379kNEYA3XvutqFsyZmOso6jGMKxSc1ZwmHjcVURZ8tMGhx2ucgFu+5uSLmwQa7K+DYvjdN9L1GMVlC6oc40dNRv2IoGNc5oL2f6guN28gak30DPuMirjfmQThstWytdwlrMbLOOEuRoAA52t7W1QfP6Eq3xOqcdzLNhtU5ziKamrY6eKnbchg2Q6zuQ6EGxA36oN53Gsfqq2iqmVVQKt1FVvgZVdPEA0tcTy7zrvsQg6AgICAgICAg5VnOl+mcy0OEvY59Fh0Tqms8Zoe9wFmXHXEND/qOQb6o7k+XnMe1tA1hc0gPbLLdhIsHC7943oNH3JTJLhuJZfrWuD6J81MdoEB8Em202J32dt9hag0ncXoaqbEnPq2Fv0HRmgjuCAXOmlO0Ljkbtt6rINh3dqaeB9DilK1xkMVRh8pYDcsmieGHTXwdqQjz2QXvA8AfBgcOGxyOglFFwXDR3aYp3sO1K22oIe4uQUbLfdFlwqIYdmGCrZPTuc1taWmZtSy5IcXnVx1tcXuByFBg2uOYcewqsoqSaKkwouklrpo+D4e9iIm/iF26C9/DcbDlDr6DilRmGLC844zV1MNQ+KWniiaaeLhPC4OmdzjTwCguWD91LDqupgpY4K5r53hjXS04Y0E/iO1oEHPoZMKhxnFn5oimfO6oPEnTxySxOp7u2GxtYCDps2uLdRug2WSpozmwSxYe7DqWooHx0UboOA4VrXAmTZAsC4skPPYA8qCw9yuNwxHNBLSNrE3EXFrjal1HOgzyMxwzJmhxaQHOpbEjQ2Y/dzoMcvRuGcsdcWkNNJT2cQbHwINx5UFW7mmd6fCqetgxKOeCKSsmlpqkQueyQmwdFdo0cC0H83JpcNzk7Cp8Wq8dxeeGSlgxWmNDSslGy8wlgYZCOTRrTyi5PMg8uSs7xYLRfQ+Lw1EFTROeyEMhdIKthc5zeCI0O+2thu132DHueS4jNTZtnZDJT1tRK+WCJw2XRyuZIWMG1ygkDXlGqDR5Kq8swUjW11BNV4vd5npp6WSolml2nWDWuBYL6DWx59UFs7hfCNbjUU0JpphXmR9OW7PBbYI2RyWBa4C3Mg6kgICAgICAgICAgICAghzQdCAetBICAgICCC0HeAbbvMglAQEBBDmg7xfrQSggtBtcbt3mQSgjZF72F+dBKAgICAgICAgICAgICAgICAgICAgICAgICAgICAgICAgICAgICAgICAgICAgICAgICAgICAgICAgICAgICAg/9k=;" vertex="1" parent="1">
          <mxGeometry x="456.47" y="308.65" width="30.4" height="30" as="geometry" />
        </mxCell>
        <mxCell id="CZ_hw_1A7exH73h-SnTu-5" value="" style="shape=image;verticalLabelPosition=bottom;labelBackgroundColor=default;verticalAlign=top;aspect=fixed;imageAspect=0;image=data:image/png,iVBORw0KGgoAAAANSUhEUgAAAQMAAADCCAMAAAB6zFdcAAABC1BMVEX///+MMiPhU0MAAAC5RDSIMSFeHxnysKnlVETCRzisPi+GHgDgSDTl1ND43NefOSrOTDyJKxvgTj6lZVjnfm+BgYFoaGixsbEvLy+oqKjFxcWQkJA3Nzfw8PDf39+JiYny8vJycnLR0dFISEigoKB3d3cdHR3MzMzj4+O/v7+GIg1UGxZaWlo+Pj4oKCjZ2dnxuK91KR7Fn5by6OWIJxVmIxvvoZjxq6PqiHzjnpXiWUnfQSxPT09gYGAfHx8PDw/AXU/Ho5vYrqf30MrbxcCnLhvka1y5iX6aTkC/OCX75+PjY1Pzw7zTtrCvdmmUQjLEe3GsXVGrXFDJV0eCDADrlYjneGigXE/Pin9vaWJNAAAK9ElEQVR4nO2de1viSBbGIcEVNbYShUAQEm4SbBRbbHVUZHra0e51+zKzts73/yRbpy5JJRWuxgWTev8ilaRS51enTl2Sp0ilpKSklkH2ye+riy7DYmWfnB5kNOV40eVYnOxP6YP0SiaraA8JpQA+kE5jBoqeSF/of8oBAcoASbtMGAXqAzwDRCFJvtA/yTECPIME+YLNE/AzSAiFvp9AkAGmYC+6kK8qO0hAZBBzX+Ai4TgGsY6OOxsCgXAGinK1u+jCvpJ2clMz0CUDyUAykAwkA8lAMpAMJAPJQDKQDOLHoP/H5/7osxEx6N/+YUde8qhkn5z+qel3Z5/t8PMRMLBv77+cbnxVlvTdVB9WSNaziq5r2t3Zf/4tXvFCBn1k/8bGaS69spbVlFX71S2aVfY9rBGtrBODgMPDRZDDCxj0v33/cQD241vWFFhrOv//WTeN7JMDvErGGFAOV5cXxxyHORlsfvuefmT2uwyAwjK1iE22TsgzILZo+sPu8Tty2RwMNj/tQP0HblmjV2lKSItbkDbZQqHAgHDQtN3Vd/aMDOzNk52NjYOQe1wGivZu0aa7Gs+Acrjc/RGCYASD7MNOOtT+N8wAc9ianoGyPcL+N84gOxODFckgUQzSa9mwexLEYOXDx3992FpTskEQCWEA9mO9f/+RcEgUgxXXfqb37/3+EHMGgv0ChzgzWBHrfxSHuDJY/4BMfD+egcthNIK3zACcfHt9C3nCWBAfP3wY4wNvnQHGACDWttJhLgHWTzA/Dgx4EhnOJSZXftwYuCTAJaas/HgyoCAyswGIIQMlm5nRCyQDyUAykAwkg7gywEMlJYNm0iszDRFiwYAYv72WWd/aSmeU7e1t9Gt6FG+aAVkhwbanmclkTZWjQs7ElcE2rveAif51ZYICsYjp3BnWUEIMCltbz8Z2DUW+X5AMJAPJQDKQDCQDyUAykAwkA8lAMpAMJAPJQDKQDCQDyUAySEkGIMlAMgBJBpIBSDKQDECSwUzf7k/FIBvb9874uwLhexOeQZZ8yEy/U4glA/dzE/5jDGBAv08hyZM/yXnbDDgWCvv0JjPtJzgxY8D7RWbWz9JixkBJ/PeJkoFkIBlIBpKBT7quZU5zY/a8iDcDXdeVh6eLs/Pffv71Iz0LiDgwQJWPzN/9dXa+yoRA/EQgpiPxxhlA5V9C5a+G6fyfn39P4RJvmsHl3e4o8zkQqG18SY8LlG+YQfb3n7+tHk8gADpePb/4bzzXD7JbudP0X4jDeJ1dPF3qekzXUPBaWi6X+/H3SA5nF3eXEDJivJZGr8ohfxA5oPpXiP1KAhgQDjmOg1f/TElgQP0hhzhc3Cl++5PEgHDICPYnjUHi3i8knYGuaTMx4DdQjQMDXbvSns4+P8+wl+jT7f3z4wgOy8ngcTQDVP/K0zku66x7ytq3J8+5kB1FPQZXy8PAvqdb3wYYoPpXdlfdbbfn2VsYcdg5ffRzYAw07cwOL9BC1L8/OPUzgF1kL4599TT3HtOwwzDnD4SBrv8as7f7QtT//nhKGcDu0krAftBL9hq3EYccDRDAQLv6tTx7K3sCX1jPwq7Sv8J2W49gz/n+t+9fDg5OV9a05fMBpv79n6PsB0Xy3wP9b/c/vi6lDzDZ405G9h8UY5+y3ErG/3CMl2QgGYAkA8kAJBlIBiDJQDIASQaSAUgykAxA3x/D/mwpjIF+9WvRhX0tbT5viAukIgNd212etdLodfsl6AsCA/3qKc4EQEFfCDCIuQ8w3T7zvuBjoF8lggCI9wWOQUJ8gMnzBZdBgnyAifkCZZAwH2AiFDCDBPoAE1BADBLqA0y3zxtf3w4BxzTN9ivke/vPywiYVuH6umAZleAJp2N0qi/KWlBXRRIetGA5NdXVocmfadLUcoRFruAcm9FlGIVKqk8D94Rz5KWaYzKYTYRrMbL8opBB6r9QaxUa+GeXnnDgYL9Wrh1GCgHllkf5vUZEmFfYNWsOPSjDkUUOgEge/8KY7Gie10NZOXse6WUQ1EnZO2y75proR4umdvwXvUQtVR2myssVFVGb3+OPLWZugS8ncuDDaJ6HnasaHdMI5LgOzyVAWLRV3l9Rz7FvR/E8g4QC1BiOvMS2aSLalWahO8j3SJLZ6nYLJf6RVaM2QGkWC0wVMyAWYSpGodsdWF7Acci5njVAyXWxTGByzZdyQ6u8algdNxExGEbivNeqepMifZGX+z6EXIv2QA149g09MNgl5qHXR5F+taMGRBy1UmDHQ3Yz4r6fghiEtdcLlslGzz+yfSlhRW8EWsy8cmjIBS+7dlOLyDcGri0NEpSIaG2WfdZixzVDGbT5FFq5iMGhwyULELoqPyQYobbXW7xMYAsedkJtOSwVMUC1VGx2Oi0oI1yU73Sa+yojjzsmy6w69RKuTnDoat6iKjebQ+ozPVzTRr1qQqynhqG7i+iCrmGS/IWxSR2jsQQ2QQTR9I2uy3Z4qkW3culoZQ+3O3uPEVM5YjU1EMFoGs5t6GXr3LBmg/MckkDQC3UE6mY3NSOUQ7VuNELvm0fgvyXyE1Xy0KbJRc4X8diUhp4OvbyjcpEhpZKYwQlCSQF+QJhh/TkZ48EPg7kOOxAH6mxSAAURJk1VcqJrC7fNI66/tTi7ilwZy1w1Q9SALrS5R4whOvL1KdSAQ5aRC5akA0Iw2+3iHB6Tp16XCxgD/yCWNBW14eum5lWFq++q6oVZKDpfcLfHUN1hBPf4AelaXIFzEcsDHX2FuofheR/K6Ib6TFBOqSFEUyLjMG9d4/bkhN04m8A+F3GDNXbMwB2BlbxknoGrqnEEXZ0n3MLJHR2eX8odhRj8Y8GNQhkg2e0ycwehF7RrfFCaXxCl6lS9vOeURc5XS/yTfAzqRrN2uI9LyDHA8522dy8ft2oklBu+5OJoBiDbrImegJVXp+hBJ6mnCrKFYpVUbojuMeAdlWdgFzlHLwdqyvIYeOtAExik2DBLrPKh+vJZTktkUBKKFcrAKbp3FDpdngGgcftYKxoGJHaL85lyoKnNIRs47nkCu46EYoUxIEtPjVqzDRbyDAo+/2yObgtjGFS7h8HeshLaGPxd9FwygnDBsHqwWGEMwNJrt4L3PAZlf/TyBz/sJDepiQzEKZM7lqu0eZvNlzNoBBsZWFAIFiuEQUX1jQhUtyeFa7nxAA44POUhibWT2gLURUpIGgRndsHDOeSowTUIPJCrpCYy8JvmuAzwrMk3fh36HmHSWDGJgdj6TZJS9XtINzRSziJL9CQYeDRTExn4Z2w1Vm24m/Evc+Z9z2DTjUkM6l50JqrcUGv3eKvrQiXOrCOxZzFoNzeBgcO3BTKyh4IORagO7xktFi8n9gu4Lxy4xpo3rP7hYWxu4gwF5LPKVEP6JFqTk2IiRJIuLmKPLjOkCNNavWOUXPXoewJ4G2LXD1UWOyf3jQ2c6U251OmU8KSbRVrIpAhxu4JzDs5XZ1QhLKDQodckBmRhpDHogm/ukR6Q9Jc+lWiO6JoGnn4Oq1MysBuBrIq0CDYelx5dk/MTxxXjVWGt2CfcpB2oUreTDx0jcetmZZxVeRSDlDF0j1mR/QyOQke8xj6fEzdcKISmzqV2K58vicnlfL5lpizunNnKt2x2gG4ivuNYuGKvmxVyk5Wy0Tm/WmRoYDfxvKdouWajZ7e8SGSFFgTNlyw6GC34FxDqZHjbaC7DywD7la713Rd+Y2Xe/KSkpKSkpKSkpKSkpKSkOP0P9sZ/6TWYKN8AAAAASUVORK5CYII=;" vertex="1" parent="1">
          <mxGeometry x="571.24" y="339.63" width="33.35" height="24.98" as="geometry" />
        </mxCell>
        <mxCell id="CZ_hw_1A7exH73h-SnTu-6" value="" style="shape=image;verticalLabelPosition=bottom;labelBackgroundColor=default;verticalAlign=top;aspect=fixed;imageAspect=0;image=data:image/png,iVBORw0KGgoAAAANSUhEUgAAATYAAACjCAMAAAA3vsLfAAAAk1BMVEXMImTNImT////KAFjPN2713eTKCVzLGWDtw8/MFV/osMHXZovcf5zIAFXKAFrIAFT78fTZb5HWYYfrusjmqbzwztj45+z++vvVXYXvydTlnrXz1N3nrb7ptMTHAFDUV4HSS3radZXQQXTgkKnZcpPgj6j24ujeh6LRRXbimK/lorb56+/uv87GAEz99fjegp/FAEXuBI+GAAAOAUlEQVR4nO2daWPiLBeGE4ggUYj7vsSlWrW17///dS/nQCLR2BmtM/WZcn8YtyzmkrNCOkHg5eXl5eXl5eXl5eXl5eXl5eXl5eXl5eXl5eXl5eXl5eXl5eXl5eXl5eXl5eXl5eX1ZxQ+WN99PX9HYRA9VMHP4MbiRuWBOlTVd1/RXxGLFwl9mOTgx2Cri8c5Nl7z2Dy26/LY7pLHdpc8trvksd0lj+0uXcfGheAe2xVdw8ZltF6kyY0jsRybwlSY//2L+3O6go2lFaJ1qKmvY1NvY63K+l/iVo5N1DSzyrhPyPYmbmXYwoCg3v4l8y3Hpq+0G0iq9oSktzi4MmxiYbA15Hdc3x9SKTbVIb0EcCVT0s2Gm3B1AzbVNtjI6z9kpaXYaI/Ydznp24+jj3qujzr7fWy0QUgfPOVKwMuQawUBZ0xAa04/sgwnF8y+azezMm84Hwb5Mdg3/RSl2NiRLI1tJkdi+r98QFx1yl1eCTa+BDfZ0f8M4aMwWjebNSEH+8lLKEKajuJdxPCbJOm2E3e2gdmsmasFaJha7+P9QuGmgX53HapoF+9b8lv6ouVG2iADi40QCyStjE8iJCp1eSXY2EoTm4J/61P90uCnGKdJTQ7x8UXvxEZH+5O0aRjw9eknOtAglDv7YiezIBPF+MZYfQe3cmxD0k7wSZ30qCXidCPfu2QofxMb7epr28KQI3MwrBSe9QyD/tjC0J+oYc5pKAPePGHrUXMQG5BlEDJ4UrFvVOmzYIMhUU+YoK/6ikvcGI8IaZWFhUtsodBZDEkT+HekLSxckhJp+xV1QjZjw6LF3dG2wYiew96KQPXdnaNvGG7lCQid6gxk+6H/HdOyUUVjHWqplOrMVC+x8RaMKonDZUytq9O+MX0zvFK0viPTlvfCk9n7HM1UhcuX7Xb7gXabcjTKfjRDAz/KgCK2TXNxtByfBFtIO/anXJanbYKQeHjovQ2KVC+xMThQl7IRHEy7oTBChzQTHA/PxGwDj5paqGj6EmO2UtHeTGc571N4sVNiC48jFRhXOOASsXFBX/AnYE+DLVTLTnfc6ZJxqQ8L1Uvmagoh9RKbBCq7mcRRVOMWW6wRNMDspC69LDa66GVm18PMWCGtsbSZ34Cb8EJ2DE3+kNj4Ej8RtpAzRZW2jmY51R7p7wYtHcze3PF2gc1QOjYaAIlMmH1j6mBrG2z5+M6wWXMOdLTAgLAMbcHRMdj0Rnz+dNgMnRFplGVouoxohIpzOQD//Qk2cPQnbaSD7VDAJjB0NkY1+7bmCM/IWjOh4/8YNkh3RyXctHMxkZROSNX5/AKbMcFcepMr2DBmHBVDVwfYJL4fy/wguZG+iKfHBoMguIwKEekbWNq7HBzvd4FNQqxrTNvtKaYW+lxXsKHNdmUws28zHFjjGYOSCmnpkJCgtab8KbEp9w39Tav0VB6aJE7nrNZ29bNjch2bSW47M6UkGqHOLK5hg5dHNlsY38ZxM7IDjZh5sXw3hpwEz4iNjuuut9IX7iSX1mJ5Vl2xbSGzO8fGMCtriqwgOtCrRlqFh6MJpgeqTmUBIVKZOgqdHVmIZ8TGXrIy1EBsk4IMLV1TVmdgw6xBVuw6NuPMcRWSrJjdr2Az49LqoGjFeSlDNc5fdHTO/ITYeKGegqsZ5MWLGJMqejLI/d8CKtMeabjF1xk2UzweMAtjE7Q6Y3BtZb2exlY1ZI0zI90P+FfQjYtNp8KmvCKNBVSgCTH7GmzTJ8Cmy6qNY3WzigVlqERQdeNmYH097caPhTLiHFtQa7VaKfbEwqhlntu3+EA/6ugYpvqxpjcQfLvfzSV8Xgv5fJDLNI5Yc7dfzSUWUrxl943gYN/R/jzDBjnm4AQCEiU3kOpadGMo0qZxQ2MnIFwaaXhqM+bPs7eyxzDbBBqRPG9jXrQpobGZNzTdfb+jU3mGLSmMrlCdp23a6j6MVQq6XDQj8NCfYPtnVcQm1oUGpC4SjsVaXUfOY+bMuBDa5RSqiB+KTTXI/oQBGjbrs/Qk6RUa4mfD8WdiOxtdOpeqFFwXjMdWYTyC83Ne/khsMLocVwXh/fWisJLDgveTxVD7E7Gp4uhSGzK97O1CEuLEWkzs8pc/EhvVKb/rqMqbbcmGjJwUN9E7ncbrT8QGzTHHKKHZdjnadCztFzc6OkXFt2DjShWmE8SfX+BUCAnaUbUdUOxIdhfNNtEvFF9n7vByLkHl+lINJOyB8on5k3ha7dad04otTOXO/yi3AjZwVGkxTIZnMYFOCsWXfCOVz/ptrNPNdedUCWISi1H8NuwOq5N6cDafbHor69N4w1kf0vp72EKKFHS9ko++t7OpKSi+rnIu6e6eWhdkfLv9hkIxnAaVTvOqzQrczEy0U8//fWxoc8myljJVRsV0LZ3RlVR+MQXj9s26N2Pj0bbax0GKzd9Mm8J4MxPWq+8cbRgGoEbvdyjPR99JsFzQTXbrZy3zT7HdPNpMX2h/wlYZm07lrmDubHvUI9B5/fexhTM4JYDboN/nhLifJwe3+Arpecy4gi0FzXXqDP0KGClO5wL6Hs7irPC0hitgiG1E9ZaI7fBOZzh3CtPP2VotEYRqNqPZCi69r4ut0FU5O90DsUE7cEVl8kHIEKxP7XS5lcfCZFUovlhMGsXZ5yvYbAMIW2utZai9ODyBWBfS6GM0qnMYLPjxUtDmfr+AdWthDVuW00Et5QabPjZO0RwkdtoGnLb2W2GabrhYTrZG+8Vsn2Njor4fzeUy6/qFKqjr0wVfzpLOsAnt2xBXyzYk9fftxpkmfbJwW+DN41k+fAWbvadZ4MwCLJPBhTETFvCgagx4RAPT541TNMf+XIQ8N++qyrBxXP7RVaaHPtN7VJKWPVggltgDPEwzbBTHJplMzGkDLmyLf0K/OODOGkd1sjHlVTImHSAknBVTeAUFV8fOqogr2JJEagmTKhyl9T6vnEfZmjZdxgUKLjdvhgcOtjeL7T2J7CoQMyUBw2pssHVgwt9diKSxqZV9DmdpKz3ID9mnwy8uJC5iYyMyNc6K7e28sdJGlGt3ZYHWL7D1j1raSUo7vY4TLD1pFoiQYc9cJovd32fPLkYbOZh4+qHs5D4pYJNjd/8W56/u65jZCaEunnTxtWVKZ9h22VoYNcmewZrZTEkH5uxuxmb0IcSLeaSGi0DfFckZXM5QmUkasm/i1VWo9l8IJIii0E1AmrMwX7VPjmNpsZm4S15eOxabmdyppDUc0hNmErxUzoZ4+Adi44PM588aZFsyrlS/UO3fiM1cbJviBb5yHHTxO5Nmiaox3X0iFDz2ZSBMJNXnK+ZtYxFabNUgUdxiM7uPJMdfAbDhJoqblUsdhus1q+/MnP6R2CDDaM8EF7O4UNXnOp+T+T1sDVC/LoyZ9N5x2kvbKNrMJJ7gGo9IZYmDRKtNLvK246hjVqqOqXWT4NkzbPm6JJuACIwaVZpvgFOM40kcT+2Gj8MG37SymC/05ZUvooe6QObV129ikyYkQJWNAwCsZ8RO/gm1NNgGPDCTpJfYDjNGTRBpCsTWxUXUlorZS+XpLqvZvc0quI4KCqf7Wql/nu6qLHLWryyh1352HrVSVfrx5wlIVnbPD/hr2wVsN2DTxzbRcWoY4JL9IjZ6HVvxV3ostlAE+0pDD7b5lYhJjeMmcdmI+xU2Y6Vgo7DUTaDBta2C38JmlrhVy7ChS4vOjHR4MlKzvtyerfq1hdIlK44Yle+dfGH9uXD5KWQCjZJbE65gs0VGaK0UIgGUlehsqv+DKoRKFbJybO0kL670CJ+9ORZXwGbylxXlMzxnFhIClozMBpjujPPTfYXa1Rsj++Sl1LfBiI/DRGpD21za6RVsU1Q7chIH+LExvyXTSFGx1HnUBbbQJF71li2uGjMWdDILu8DGa2brCCmRmk1AGi9m+Yjmik/e4HRR/Yury69hg9a3cBYUZB/IColn+pUI++Ryz08TEERlb8zAtCmLCcdGH3z5Bbb8/oOVMAnI0RYVXRtJC9hsAM5UO0t3oebpn073xXL+2mrKZEPeTstXWvOMW5At41Ij/a1vx2ZSXNv6Yc5NG6+8BJv1oytW7LdleVsRm813dW4DeHSwZeZcZl2c3kA4940NvtZXunrTd/HWtPwWooFOuLJnmwv392l3F7GFYf4Uzp7m69iatrjSeZtZ7JxAw6JrITvd3cNKZsbePWGDUp61cKsegwcwQzWAw08xNuyx1s+/zscjiytHtHPonZQNLFh+amp9sYb651fY+GCd36m3xndEbbFeNLMvzeVy25l0VjXoiqV627UGymuwOTZ65GAfd1Y6WVmv9jov7qzWgTQdyYXeFocM3jO4TuF3EKre2dek0PuvMZ3lVAUywdXqeK8Mp9F2r4/SFH/Gt4UQUB3l5qjDU4o7JNWs6v8M2+WCq4ALIRwLMfeJnpqXYXBahxWYe0aF6V2icp/kLuGyu2VdySB/QykhTAQlqXNbKuNfbVTe+ndAdPTrccUF/ISX94M/1/SyeDnG28XKNOGShx769j+fciTH3bz5Vnor7nNhU9WTX20+9n62m7HxyMb5SUk+/FzY6CmOrB580+nto43Tj+6m0k7LqojnwhZOTdrSr6aP/lb3/I0joXSM+N2bvr9TTAbpYB5J9fDJv3/8T0OFeZB9rP5xbH9KHttd8tjuksd2lzy2u+Sx3SWP7S75vyl+l/xfsL9L/v9LuE+Pc2xG3309Xl5eXl5eXl5eXl5eXl5eXl5eXl5eXl5eXl5eXl5eXl5eXl5eXl5eXl5eXl5eXl5e36z/A6IUGbYfjFJ5AAAAAElFTkSuQmCC;imageBackground=default;" vertex="1" parent="1">
          <mxGeometry x="425" y="346.77" width="46.72" height="24.57" as="geometry" />
        </mxCell>
        <mxCell id="CZ_hw_1A7exH73h-SnTu-7" value="" style="shape=image;verticalLabelPosition=bottom;labelBackgroundColor=default;verticalAlign=top;aspect=fixed;imageAspect=0;image=data:image/png,iVBORw0KGgoAAAANSUhEUgAAAZsAAAB7CAMAAACVdd38AAAArlBMVEX///8AAADxWVPwTEXwTkfwSUL5w8H72tkyMjL96+v96Oj719aqqqqHh4dERETxV1Gzs7PxYFrY2Njk5ORmZmZ3d3fr6+vDw8PJycmNjY3Q0NC5ubnn5+d6enrf39/39/ehoaFZWVmZmZkbGxujo6MnJyc6OjpTU1NoaGhLS0tBQUEREREhISE2NjbwQDiBgYHybmnvOC/3qaf1lZL0hID6zcz4s7H0g3/4vLrzd3MsCTiUAAAH/ElEQVR4nO2caUPiOhSGy0Xv4FiUKdBCkaUsCqIyzt3//x+7NEtzsjQUBYWZ9/mEPWmanDc5zUmQIAAAAAAAAAAAAAAAAAAAAAAAAAAAAAAAAAAAAAAAAAAAAAAAAGfAv7+7+aKKXJWVyfm8lv/8vFw4eflLFflx6S6zpX77eS3/+an/5uL2ghT5dussw8p9+7SG/wKUaPOHKvH1slSa89Nm0pX0P7spu3FrU79WJX5c/ETaLGuS+89uym6c2lQNaeeszc1nN2U3bm0qhjRoc1Sc2lQNaeenTfPx5mbVOGNtbuukgC+knZ82jNY5a1M1pJ2pNuGZaPN6afNKE88XRwHFRXnNp8u5aHPlYpfdXfRsOBdtfkWgzekCbU4XaBMEUf8m98LTqjtJYsOWdFmW8diMyMU43DLYfkinm2bOZpJfHg2SJBlod+cX1J3jecbyyWxOHzPKa0vz0n1Rm6ijTJtBd8Es/ci0jPqr3DJbLadGT+J5tmZbQJ3+YLTLISdD9FyjrLttZRsQw73yRMTkCsY3hTHLL6fsY0/dPtYvbEhtQ1WKpTHdIH4qjE1ucGsTklpWbWppr7Se1JaqxV3d8jAwaz1JwprJuLB1dEMorwttGsrEtAmcXq+JP9rGY+60UsOAmPqkaaY2D3otxMmJ1RM5QWLLMn+33z6AntXsVWFbmSYpDtNmRVXl2jSpFoHwo5gEpjS1mgw6TJvNsJo2z2YthTgj6wFP0mRZamboPknWVrOLISW9lW2GcrCKgcjnzRO5iWvDg1oRScb0T1FwsdwshX8bohjTRpsO5TFN7oFmm64cOdLN91ZP5NFP37I8H9SH1xZeo680hU+b9SSK43Y6mHZIX7mj5bjk4emR/xHJPi46AuEGdnEqK2f3rPlnHvAz/n6IuewhrXrL/VLUJgy2NjxszXrELoaFnDbTlPdkOVODhFs2vXYcj9JWvlyYBofkpa5z+aeyXb3Wd3BZ9n2BKR3AOXFLfmKje1G8fHjMTtlnqU1qVrfRqntQg7dN50Mg3CpkE9o8twMDW5sZk7D4k9c6UrWs1btS9eTOamvvsCHN3Ousk720v33HA/69ziad+xqpFjACMWa77KPQZuy/aUw8x6bNAynZUf7i2izsJljaJOZjW0rxiWqeAW+ty3IgTG0uie2773jArw2bNyuXZWipti66GOmxi2DFqgW5TvOKVHmVa5PYlVnaMEEn5vNmqrBDYDm7jvj2N7S5pSHNezzg14aPxMY8suaA3SE29tnKl2tjZX6BUFTMj0wJyJR4tOrnV1olk9DWxi7YKa7wNs0mqV0Rn+XNA0cyhaHNfiHNc35TK7hf9geq9fz10m8qeMrNhndkTQNJT8UPHtJ4FsOm56NWmyqoZUEUU5vIbtOjCo2qJ8/b3P+O1KMOuBfZJnQNqfeha6OdeO4OaR5t5jWNhUxh7LyHw16w3EnWuzunVgjI9hTEYrVbUhszVtZmUFJL4rLOJsV9Zuq5OfAEMrTZL6T5zj03RsPFdCjzwy5tmArL/FOWfxLJUnYQbewtDKoNn5yUYmmWmpaJ39l7omuzZ0jznkknM6PhzOdv1SaRjuYhTYzQD9EmSBuGoQhfsbH7dNgER9dmv1Xaru8LpP0b2m6WP/Ch9twweGKpqEcbHtRS4XG5AmRLhJlVG09wKmuTlLRJ7a5GU22faa3ujee6PPR99F603HO/xNOXe6q2R8mkK3Zh8qgWlzksx6cNe/E2xVSRby+WfCxLaquszcjXpoJxlMyHYgb1dMuoFzaFeM2Su9/C9RfCNTn+v9IspVR7SrtReNTRtwKfNmxwz0RIk+vZ1OfVytoEeqDyErNQ4Myq2SR+dFlOm0HRIyuTJ/i04Q68YxVl+sWSQ5Pq2mS+6WfAhoNznyCoNP1OAd1hzE/sRckX0aHzHq82LKiFS10MnmK4167VtRn4JA70nQXW/qGz4Llosx1eU+JkFtP4JiE799UWNCN5fODVhjnw0ei/2CWm8SiRAbO6NiK/pANmVPzR3k54kg6vSOtrq5AMi74nIpwU/Hy9G/ZG7VEqMgTeD5F9LsJcg3HUGq6L94dXG5Wgd8hFsUrqJHkVcW+SqYjn12bGDw4yurJvtO5Ym8IuuZFPzW1Pom1P5k9kLLR4H+dJNGpHLb4YmLzRXx9IcRJDkC4d2qYWvatMm2KxqgUZx4OExa+NZKTXrRBPuXM8QLzw7fND5/bdqWEfFpJm244QQ92vTZG2alftM3v92M5RkUMb+5xcrg0cqokA4EpZz+G7HMmD2eoZiczWLog4NvNrMxaFjUXS+MasTbwN9tJGfCeBIPLbni2OuKVtbUvVWo6nnSDjMCONXk80Y0w3KbPihVq+D80QelvJUULUmQ2LiBeWaaPtwxbLiPaSXO2Ql/y4pclDVzG9Id2Y6h54r/OrgoTKq69V8VbeHkya+b+9thzuTudb02aSlM2SvRgn0+H2OWHvfeG+l7epOUnsjZe7RPTEylDjXtjfWppz6yD93aj/8Xgl/fru/ceOc/8fj3Oh2Ou8/UddHFc4Hqiw1wneR6HNBfn5k38rHA9Am6NTaEOPB/6rcDwAbY6O1OZNIQ3aHBWpzZtCGrQ5KlKbS7JKqxzSoM1Rqb8npEGbo1J/T0iDNkdF/Lbdi5Z4lv6WHX7b7iMRP+1IvvtU+jOR+E1IAAAAAAAAAAAAAAAAAAAAAAAAAAAAAAAAAAAAAAAAAAAAAIB9+B8YsI/nzlikJwAAAABJRU5ErkJggg==;" vertex="1" parent="1">
          <mxGeometry x="560.83" y="308.65" width="54.17" height="16.21" as="geometry" />
        </mxCell>
        <mxCell id="CZ_hw_1A7exH73h-SnTu-9" value="" style="shape=image;verticalLabelPosition=bottom;labelBackgroundColor=default;verticalAlign=top;aspect=fixed;imageAspect=0;image=data:image/png,iVBORw0KGgoAAAANSUhEUgAAAScAAACrCAMAAAATgapkAAAAwFBMVEX///8AAAD1jyH1iQD0hQD1jRv2nEf1igr83sb5xZ31jBf3oE7++PDCwsL3rGX1igDg4OCQkJCcnJz97uT/+/eBgYEjIyMsLCx4eHju7u61tbUQEBCrq6v4+PjLy8tTU1P4snU7OztqampDQ0Pl5eX5voz85NT2nD5vb2/X19f72LuioqL+8ub5wZL85M/3pVn6zqr2lTFZWVn4t36JiYknJydMTEz70rEZGRkyMjJYWFj0ewD72r74sG72mDf5u4UOgFydAAANOklEQVR4nO2dC3uiOhCGuSN4V2zFqlXrDW9obavdrfX//6uTyQTESlsUe+pKvufpChgQ3p2ESWYIgsDFxcXFxcXFxcXFxcXFxcXFxcXFxcXFxcXFxcXFxcXFxcXF9S9rMlvNe62c66YHg0HadXOtnrGala3fPq/L0WQ0zamKLMu6bpqmiiJLuk62KbrbG5V/+xR/XZPVRiKATOlzmQSX5M4TzGpiDBTZVCkNlZnPTmhgqgdLWfT6v33Cv6KRpuiUgkoA5Qe5njGalScZbJAsa1Luj+a9nKYrsl9sMU9cczWXZBUvPq/1RpMvSpbfpmkdWamyOU0UqTdKSYXKNIty4dZs+o7Wp+vzHz+7S5GVU4CSLPWOaZwn0wU1QVnL/NiZXZQmkg6UBqOj90ylgZSpz37grC5O5Ty5Vn3xdtLOs4EMjBMAyoJbvdw7eX8DTEr+quG/DuVIpZNTMQ7QJ6DVwdnO50LVVyRJiVdtJqTqycc3bv+WlrqkT2MeYyRLpnuWs7lcLVQpH9tVhIOc42QuWPI52hbXlOQrd6JI2yLFPoimJoFTrLsdqAwHuX5OqhSzgRqoieAkmYNYoFxdSgYnyVycPuQ2GQCmZHCSVGV7okkZCo5wJoETDCTppnECqblE908EJzXdz8OV6vntcbWvPFXpsIqS2iTBf1I1wdrQ2qMr0jQqqrKBA5qq4maEXEI4ke5wWjZxeFzNzfvf1MA+BK/YAPkAnK/kcBKEWY6FWyA+N9gYo/7hmNKkPzJaWl7G4JWqK2l0UZPESRAyxoChgugdBO9kSXNbrdaS/LnaIg8xPC+CBzGHqUcyWZyIynNX91EADRowp1L9jWBx+bQRiDkkjpMAISdjI1HDCaJBaCaYmWLmjA/Bq7Nwsm27EfcYP6cDTlQWaYiWOW2h5ndhc3OhuUvSbIU08ufgVBKJLhdUOCdflpWZUFlf3QPPwakNnGoxD/Jz+oZTNJ2BUwEwiS+xT+WndCmciqL4QEDZsc/lh3QpnNai2LwRxTGujetkITtstysEXI18VhFgYTx8uX0YZmHZqfui32WHD6+PJSxHvmsKjfrj60Mx3mn5uhBODrEloSqKr7hK1savtCaua3f0k1paSWR6JCtj0RdZs1/ZMm3iyHcvNVxvx7s0TxfCqSKKHSFLLqtLV/ESGSFxDf+AYTyRbbe3sJb9yGnt79Aka/Xdd2I29uWBLoQTuZ46/bfkrbabDQrulXw2mQlls2BVNlmrkA+HqAC0OmhpFSx4IyCnToGCZUeMq8vg1MSK9SiKz3SdrFbhc00hCAIxlPtd6Q7bKiAz+OaZWB2sl9Cg6qyi2lfGqYrtCDQpDqx7nG4OODWI0171OTXusElroImhezFGTlCDf5dTJpM5c78FLrNQKIBZPbH1UHvKgu9wc+NzajMfvuDxsPEIl8Hpr6K8723I6WosTtlAs3sHGz7hVPRLIac/XsN/mZwUSU3vbWi9DxYHnCxP3xPsBDjR+1U4py677XntU9Wrpl7T7gO7UE6hmno96L/flYTW5Q91GIsMUDinGqtlrH0qBW76N3ifC7bjF8LJKgeE24PLgmDobDxG+e54td0FM28onBO7+sYD3Qp7VewuUQFr5BO6q1Bxf4TT0XkYlNPsr+xLycHmqUKXPeyG92jDt5zuRX9EpYrIwjlBpbopVln79GdXVbu0RMCv/AlO0tFZqJRTXw4M4ck5iHjisp7DUqPWUlOjcPJ8IFAWPUry7xBWmX8JnzCUUEESwxBO9g1bpp29H+Gkvn9fbE9oT4rpDwkTUJu5AsPqdHnJys3MSPbklMalJltulMZjcmFkC62IZKUW/Ky93LSLDbsEazVSFFWixljrtG9firZ/SBsP5x86nmg898ikQcqpvGl5gkQME/40XJYNWiwlR2yf/gXRa9GPe6Tg0C/AbA5ql5A/rKzIwgwMTHq/Jk6SKR/zlMqhXwCgzHd00jVS25SUMIMarWdc9Xo40TyK9+iZzSH+U072MAnWgvRiWmVZldT8RNBk/Vv/6V8Q5GG8KSaEwBdGxNoX5me6C7/LlzGVKWIivpTR623Pd7a/J+pnTtLssTJ3FeUBjFB/PNAzLhuASdKv6dFY5o+P8BkxU5bfe6nvzOrbfgtiWp3tJC9Afr9l9K6Y7HFWZZGbrkLSMCARY7X6nlOfMpf0a3p+ONC/6y9N79FfTMPID9zWctsDbZctd5CHjon6LSeKCR7pI834dbVPvlLbhcxYIS+YtYAK3W70Gr/m1KdN+Eq/uvvd/njBZLTVQtMwWCLG334IJ6O3EwCS+7T/d1X+U9i4yuTNWLqaRCuaNyag5CERY/5mMU7G0i/ekvWdJIrp+vzxL8afLGvSn6VmRP1+IBODcpor/kOgLXnf7mRswK+sf3fSOJ2bItYiYwtNOy1ywPK8+9zheEEzGxTEKjuHh/9MTrHTGZ6p+3+0Th7PpAMDYFEbGMLa9Hdi7mXY+NOrGBQdXetG/dXH3W5EduH/Tdk4fXw8zUCNFH9obk9h45mVDhG54Bf47EC89iHqj/4Rxft6vf70gJxKGMD63xQjjkBBTQFUGKbPx8e7GFOhipxA1/QHJnGXiniuTJRoihNvAVCKQRrs0FJTRZFD4y2FU3Ijiqy+eer8Q5zQooxPSkHkLjR+F+BUH0LUzRk+Cd2nW/Fu2BDsYptUywJ+3a08i+IDHfHd49TI1p/Fh0p1SOyyOrSFZvXRocdZi3d/0FablfadePeAqVEVUqZ+fye2yXfZx7X4PD72kmPG7wYmWpSnt71OYSa8KxzgVKFRt6woPmET/eIl69DKBUGFWxZ6qfk5ZAKGn6hqEGJoDkU/0QeKj4MlWNimyuIxtWf8PBpUHE4ZwdL2QL0pasB4JpKqhIHa43QrUB7rOrl9wfUWC/SC4Tq6mGxQw6AvudBHh+3WaDrk0p1m08aAVKdUcqAFA+sp0UyVQtEhqBtDTFu5Ibwc5H6fbQjdNSa3HKMYnLY6AQUW5VW9FAQDd6DevZHyDwrjRG/ytpfwu6ZB8CHGpMgnrHUByG3J8wZuvPbpTrzHbQ/sDtjG0BRVA28ZXuFHll1X+tDYRdDpnLYyQLF2VQ9cT9IH9EFlFmooqE85NTxOeMnebbHO0oBLNGduiPe7ACesQ7bnij1hXUPhT3mFq4xT7X/ktKXupbADlcI4pypNWP6FMFlIYaAicgLraoJ2TlaTJmzQsgFO6C+QakdLO0PGyXYc+6ycFsfuA/0W4l1KOm2lGCg6PoDDTp7QgToAFZFTYee473LpbC9X5YBTIDcIqmmWuv7rM3KS5GPHsak9tWTdG1wBUHoehqsmI0U60EdQ0TnVWUfQCez9gtcYxsnrNxbo2v24Vhqek9PRc8hg+5Tzx6CoRcFo0wScc3UnrIjyh/HfiJwaXnLTvkqfcHL2no5Zsw72OTl5/f7IYve7XYTFejd9HqPFwJP2Ts3p4zB51Hb8OdTlHmLG3QGnxt7TMd5PnJUTbY+P0OF4prUwabRuXxN67INsmKiciOUwv7wBT53hYpYlzr16IzIeJ9KTubP94qw36JyXk6QvjsntCRkfzyw+1i428V3IHFxROUH2U7WWrZXg4Yu62K6UxqUXz1eHxPxitR7gRFMzSfHic40OwtSd2qN4Tk4q3KSUXPQp5sLiCJnDIBRMlBE2VVmAU5VWoixzfXxOr2gz9ssup6np3cxe0GgaNN+p6FsOHJf1ScDtste49EB/imURkzqL6emn+QXpqUKnIXCjztsTLT+TNO96aApaAxwbVNdxcAM2wd4XBYeN3jnjp0qxhl82S5VqdVzwD9Os1ZzAPqxIpcT+D2pFGPrs0m8ddryug7vbTtgd4ktRPzNFUzFMWYo2tXFEToKgXc98kcwfnyo6xoKl1peT+1IRToNZKopoqdNm5rwwef0Wq6fjRMimrORz01E/PMkg058BJ+IERNeVxTmtleaFgiFsnpcG7nJqzFcjYhGr1dyYLt13Ka9IlNMxur641MRIK37YnEZ/6WTtMp2inUWIyVVrwbAmCCeO/kxXZk8oK9VLw1Tsh1Fzxk4pC5bxQZoqmdOPG33FnZ7zIhQ6rlJ+m7Y0iZkS6ffn87hoStpyGtLMw/NSVz5f+xfjT9akPHsbrUjbRP5Gb7Ny5jMWSZw35BRxTtHEOUUT5xRNnFM0cU7RlID5oiG/PvZBEjD/OFSZuG+qScJ89jR/MN7E2ol4PwLNH1TiWBR930b8Nu7SZUmQSeGe/AIWfH/LNT3y84kyAMpUeifdsJLzPiBiUS59WFFeHm0UiXq/lACP1Js0jqDNjzAq/31l6St3nQLKbBScBlnRjCghl2S+/w5U3rAZoHVZd6epz5t1K8nvUwRlpmyybAgjKGp6Y8xTff/9nBn6fs5p4t/PSTXbLhTvnbj4rKLM3/carrLhqsFHFQ/F3x/sqbzaunnvhdQf30dt8vdR78kqp1bGdpNzXf5+cy4uLi4uLi4uLi4uLi4uLi4uLi4uLi4uLi4uLi4uLi4uLi6u39d/vGwcGu3PVzoAAAAASUVORK5CYII=;" vertex="1" parent="1">
          <mxGeometry x="499.99999999999994" y="301.76" width="51.76" height="30" as="geometry" />
        </mxCell>
        <mxCell id="CZ_hw_1A7exH73h-SnTu-10" value="" style="shape=image;verticalLabelPosition=bottom;labelBackgroundColor=default;verticalAlign=top;aspect=fixed;imageAspect=0;image=data:image/png,iVBORw0KGgoAAAANSUhEUgAAASYAAACrCAMAAAD8Q8FaAAABF1BMVEX////Zp0GHaSkgHB0AAABiSh7615HdqkKEZyjZ0saAXw2ifjGvhzXYpTrjwILFxcUZFBXn5+ff3t/W1ta9kjkTDQ6pgzPx8fG4jjgNBAempaaOjY35+fk/PD1NTEwkISFtbGy7u7uxsLBaRBxiYWHXojHNzc0rKClFRETz7ONyVyOXl5d1dHSAf3+cnJxnTh/Onz5ZPgBTUlK0tLS7rpnXrWA3NDWHhoaVcy1dQw/62JTWqEvku2nWnySJbDHLuJnt3siedx+zpIt8WgDjxZNgRACpew9rVjR5ZkqMfWmkmYvBu7JTNQCXinlyX0Di0rzkwozq0q/nvmv45sfy1Jz54bXkuWTqxnz45L+1llejhETPrmzduoC4Y5sSAAALjUlEQVR4nO2ca2PaRhaGwYxjGpsgCSuyjLhalogNhIhEOHbcpm12t93NdnNb0zb7/3/HzswZ3S/IDsRKOe+XiEESzOP3zJw5I1KpoFAoFAqFQqFQKBQKhUKhUCgUCoVCoVAoFAqFQqFQKBQKhSos7YfX9/0Vyi/jef3H0xev7/trlFva84cP6/t7DQSVI+P5zsOdHYqpWkVQWWJO2tkRmBBUusBJIUwIKqkAUggTgopKC0GKYEJQgYwIpBgmBAXyBu5MTBTU9baDijspFdO2O8pIOCkD0zaDosuSFEgZmLYVVFq45WLaRlBaJqQcTNs2mGc7aQWmbXJUMgW4BaZtcZT2U/rAXRjTNjhK+ynfSRzTxay6l0/qLw7qu59XQarXz3ZPTs4uDleQaly/ue/ObE7f5VOqnz3dBZ2cPN05yiXVeHTfndmc8jAFjHxU9f3ZXhaqbEyy1RxYcrLdkGUjOIy9pzQHA0tb2QFDVvybRD5TSfnAOysT09nZbpp4+KWTysBknHd0QqU6A68HTrc7Oq5Uzl1dt8esj8bCVSX3PLhIGbvsGtLre51tdrqBRqYgI09ciUjuRBFnaZPxeEzvMxjR5q61WUwJG8VInewczJKk0jE1dSLVuCQiOtckkqQ7lRF7Q9JdraLUdHZIbM88C6KKi1RyDE1TelGgmiYa2YU1SSUCsUJUVe+wk/kHHm8OUz4jD9Vu/XE8/FIxWfCFodOkLzDRFrNNAITer7iqODThogl/y7sITHgsTgf1OKbzoI1MBCZ6XVfx2omS/EZrwFTPCLV0Uz2Nzn5pmAyb9VW33Z4efG2Gqea6Xg/1se4fyv77kuq6HJRk8ztR4zABUIn7Ds7Te7yRDANMplQDxPpk/ZgK2ShGajcUfmmYhqwn6oCNPrwvUx8DfaES4KPWSE9VA+eY9FjqUKJyV/LZKos2Vy/oPvsTSKOWpjj8Yk1gYoilDhy4a8Z0e0Yeqt0zEX5pmEw6oogRgvVYnQSYyMDQFsCp1zQ007eERgcmCdhYJIg60IBdIfXYIDdgb+rsPMP2/gSASe1rFQt8lzYJ3hXTxQ7LIKk37kgKwi8N07HZ7fRgsmIc1L6PSW+zQ5fbpcnhsCNGVJs4XduB63njPLifDIQt74YSjGZj7j8fk87aJoyTtDqjKIypfrBXnc0O9y/qT0/uRuvly7d/e/j3z6mfYIhvOo5iIi2vsabzP7nkYeIXGSFMw+Bm4LkFP4WFnw4zHB/fiSwwgWe52dQ1JU8epiodjJlmRwcXNAAL0nr58uWzZ892//HLr//8l6VkG1xTrIEjRTHxDrR1f4zuSCFMcFFzHsPEcXDbVCqtkNOaXnAqQZS2NoNJiMOqzg4f50Yio/P27e4v/6Z4ZC1/ALDaTo1minxsCjBB5sMxOUlM2mA8YullLYJJhumyFULTDJAxZymBUTeLKUSrymjt05XvrkfLc89vzD2pa4SEBjZPASEJCmHq5WFqqyy/lOCiABOf0bxMEpwGibbC+OkLDxMf/r8KprC39maHB9RbT3d/+5W6p6XcZlg856k26TmmnYmpy88MMBkO7yHpmKYUxgQhNxKvhnFMbEi6H0xeBLJV3N7pf25/exhHXctIzHQ5mHgSTsa0h0Z4bJLVSGI9DwUdp3MvbuKT39FjOv1R8epl48Wb96+f3C4R4RkgYOgXxQRjMw+tCKaR5Ceo/l3EEB4bmzaNCdzDdHhxscMA1XnuKZ5vapyeXlevXjx6XxRXOD2MzXTZmFibeFsLYYKQM/17g4Omoc+Zfx1MNLgOqHse01d7h/XwUi9SC28wXKeN6ot3b14/ycc11YMw4YsHpwAmJ3Cg5eecMPzU1PF0KIpQPG+CFEmMU/JXwETBCK3CFMF1XX2xfEfN9ST17ud6dH6WbGM1plGAiS9m1DE7hHVbTWW1K2fIbsOzcFi0RbPwjWI6EmAKY4qYq1q9evQ+cXdwE3eDGaxtC7gJ+ifzdS5fccjhOopEbCWcOGn+srq8mHydJtd0kEhKTUPpQzclRmcFJr4YUx3ZsFwoh6im6HQgfiJ7W7JbBi8kQG3lG8CUsvQ1RMnE1tWarnt2WoEJ2KqqTVMuUYXUeKcllRd+9ciJku7ySifMed8mpsqUBH9/Vq4MupeTN5lemU4iVlelDmyxTuukMzkeNAfDRVfX4US4O6TqvODwrWKCqrYkEX1YMboEcoMmUVUVShwLVruGvNpVvdKUNiJ0mUK902nRCY7wQoxCJkHBVj73kwSoheveKofVwlVvzmCH3wimijW2bduZ8v2TPiwtZJMKZvKmQw8h92k7VGIvZGjSi0xY6PfF/B+5q/dKntiSKtkTj4bWZ/eGnIsdjddYltsopruqcP/WuyGXodJiKpcQUyEhpkJCTIWEmAoJMRXSejDx1e/1u4zPMBJ7CoaWKBRrKzYe7ldhTKIGVxwTFAdOT68eZdc1tbbbk3r2IpTcNM0eTQnHkRabLl+cYfLykigoy82ODvZ5ybIAJijMXd0s37z/mF+YGxBPTa9p7LX4u7mm1zIqq6NC1UvYHpgdztgLUaSLYYLgou7hlbgCfWrRvi8spdWm/wr30EN7oLSmtEUsTSa0ZagozREh48319IuUvbPCNgyou3b8LYNq9erWmwam55khgS1tujglHUMc2F5LD84ekXUtVdetvA0oz15H+/yEO2xAaZQJHBk2gULA2DdRWwTi1A+/OSElHZ5WbGeKUGNOuvnw6ePH1+k17yzRmPMexOoSwk2kEiJaFBFj1HGK37JYS6/WrlxMdCarXl3dvFouH1xeXj4ALT/993c6MBWKPSvAZM3n7IpWaPxxwWoBJmM+X99TpWtVOibKpzFjfCgWn09Ml58+/f5xxUhFoYyiLTSu/Ad2HUJY+mSSyINepVQME4sv6p8Py+XlZRafmJi7GK40XgaJI5iGGsZgo2NvLC+xBKYGjy8WXuH4upUuUzag2Fwffep44Y/gfAxnx3ScZ+XcUotjeszskxNfKwldPljepG1AVQz2lJLUDsrYfUJ8IudiquMpqDNf0/N/GxF/9rL+/R+PHtwREYW0fHVVbWQsfQ3Iud2pgGCGMPkBaHX4SWYz5QblkHiSl+bbf36+k4+WN5xRNbNCILdrHALEXiomtqiDxUpJs8vQc+E02f6Tmuo2iFioNYLpMbOQ0mJDFMxwaUHHZcy7hJQ6C98JkbooSOrSC7VqAUx0mKaTP5/WJskh3Bcbo5yN9fSLlPjNCjPVqvADG0UYrcDEs3C2MTuNlgqiExzNRkk5B/K0X0Dlhh8NtQ831TiiDEytuT9/UauwR7iGoQTBhBibz31w3Zi/SqOM39OxGsofSVNRG8VDLRdT21+HsPUaCyh/+aKxgoBr8BTUz9Qn4dGqTMr5dSaf/ZbRULtKhFoupmngDoqpX+FQeMo9J5YBLXRpF8ZUUjf9nInJCz+ReH7ItJFQSnppBSE2FFMdRJpBk4SJKKCYRPUi0y7r2JT/31n44fcqz0bgpdP/JYssdB1iw1pPqxHvR018jGKPp4hq3LG/Gj4u7UyX9X8RRVGt3IBqXKdAqvAo6rLZzLL9Agq1E/sBb5N4LWxNd66xzQUSn/pKpdWOWoEp1Ulw65G/ZWAmm0QRrhk0lLuikvUfNxXClA2Jqd3j/e+GfhTXllhLp7nwOLXE1sp4XT/N3ZhyHZWHKR8Sk9yyWrGBWbFaLGM6l/zHtxQr74dmJZLx/PssUNmYVkPK/8y1ffuvqMzBPHPXN2Pg/ssr3VEZvzL4Mid900p1VBqmrXWSUMqsl8S0zU7ylJj14pgQEigGKvZDMYQUKDyYhzEhpKhCg3mAadsH7jT5oedhQielS4ASP4lGJ2WKg2KY0En5YqD2EdJqGc9//IyQUCgUCoVCoVAoFAqFQqFQKBQKhUKhUCgUCoVCoVAoFAqFQqFQKBQKhUKhUCjUOvV/EFF0q87fsBsAAAAASUVORK5CYII=;" vertex="1" parent="1">
          <mxGeometry x="491.87" y="344.55" width="49.89" height="29.02" as="geometry" />
        </mxCell>
      </root>
    </mxGraphModel>
  </diagram>
</mxfile>
